<svg xmlns="http://www.w3.org/2000/svg" xmlns:xlink="http://www.w3.org/1999/xlink" version="1.1" id="Layer_1" x="0px" y="0px" viewBox="0 0 512.001 512.001" style="enable-background:new 0 0 512.001 512.001;" xml:space="preserve">
<g>
	<path style="fill:#333333;" d="M147.28,203.408v7.558c6.087-5.821,14.787-12.956,26.257-19.623v-10.928   C158.763,190.076,150.162,199.839,147.28,203.408z"/>
	<path style="fill:#333333;" d="M185.517,185.094c7.773-3.616,16.513-6.872,26.257-9.412V163.02   c-9.917,2.844-18.658,6.474-26.257,10.408L185.517,185.094L185.517,185.094z"/>
	<rect x="223.751" y="371.73" style="fill:#333333;" width="26.257" height="14.726"/>
	<path style="fill:#333333;" d="M250.011,157.112c-9.424,0.321-18.174,1.384-26.257,2.997v12.932   c8.14-1.482,16.889-2.448,26.257-2.74V157.112z"/>
	<rect x="185.511" y="371.73" style="fill:#333333;" width="26.257" height="14.726"/>
	<rect x="11.98" y="148.23" style="fill:#333333;" width="105.616" height="19.904"/>
</g>
<path style="fill:#754C24;" d="M30.513,198.551h17.673c3.308,0,5.99,2.682,5.99,5.99s-2.682,5.99-5.99,5.99H30.513v57.272h17.673  c3.308,0,5.99,2.682,5.99,5.99c0,3.308-2.682,5.99-5.99,5.99H30.513v57.272h17.673c3.308,0,5.99,2.682,5.99,5.99  s-2.682,5.99-5.99,5.99H30.513v55.008h68.552v-20.382H81.392c-3.308,0-5.99-2.682-5.99-5.99s2.682-5.99,5.99-5.99h17.673v-57.272  H81.392c-3.308,0-5.99-2.682-5.99-5.99c0-3.308,2.682-5.99,5.99-5.99h17.673v-57.272H81.392c-3.308,0-5.99-2.682-5.99-5.99  s2.682-5.99,5.99-5.99h17.673v-53.068H30.513V198.551z"/>
<rect x="147.283" y="371.73" style="fill:#333333;" width="26.257" height="14.726"/>
<path style="fill:#808080;" d="M64.789,107.959c-16.856,0-30.897,12.234-33.738,28.286H98.53  C95.687,120.194,81.645,107.959,64.789,107.959z"/>
<g>
	<rect x="111.043" y="207.364" style="fill:#333333;" width="24.255" height="13.202"/>
	<rect x="111.043" y="371.73" style="fill:#333333;" width="24.255" height="14.726"/>
	<rect x="394.407" y="148.23" style="fill:#333333;" width="105.616" height="19.904"/>
	<rect x="376.701" y="371.73" style="fill:#333333;" width="24.255" height="14.726"/>
	<path style="fill:#333333;" d="M338.464,180.498v10.846c11.47,6.666,20.17,13.801,26.257,19.623v-7.545   C361.823,199.86,353.198,190.134,338.464,180.498z"/>
	<rect x="376.701" y="207.364" style="fill:#333333;" width="24.255" height="13.202"/>
</g>
<path style="fill:#808080;" d="M447.211,107.959c-16.855,0-30.898,12.234-33.741,28.286h67.476  C478.106,120.194,464.065,107.959,447.211,107.959z"/>
<path style="fill:#754C24;" d="M412.936,233.177h17.674c3.309,0,5.99,2.682,5.99,5.99s-2.681,5.99-5.99,5.99h-17.674v57.272h17.674  c3.309,0,5.99,2.682,5.99,5.99s-2.681,5.99-5.99,5.99h-17.674v57.272h17.674c3.309,0,5.99,2.682,5.99,5.99s-2.681,5.99-5.99,5.99  h-17.674v20.382h68.552v-55.008h-17.673c-3.309,0-5.99-2.682-5.99-5.99s2.681-5.99,5.99-5.99h17.673v-57.272h-17.673  c-3.309,0-5.99-2.682-5.99-5.99c0-3.308,2.681-5.99,5.99-5.99h17.673v-57.272h-17.673c-3.309,0-5.99-2.682-5.99-5.99  s2.681-5.99,5.99-5.99h17.673v-18.442h-68.552L412.936,233.177L412.936,233.177z"/>
<g>
	<rect x="300.232" y="371.73" style="fill:#333333;" width="26.257" height="14.726"/>
	<path style="fill:#333333;" d="M261.991,170.302c9.367,0.292,18.116,1.258,26.257,2.74v-12.908   c-8.087-1.624-16.838-2.697-26.257-3.021V170.302z"/>
	<rect x="338.46" y="371.73" style="fill:#333333;" width="26.257" height="14.726"/>
</g>
<rect x="223.751" y="269.648" style="fill:#808080;" width="64.493" height="16.433"/>
<g>
	<rect x="261.992" y="371.73" style="fill:#333333;" width="26.257" height="14.726"/>
	<path style="fill:#333333;" d="M300.227,175.683c9.745,2.54,18.484,5.796,26.257,9.412v-11.592   c-7.605-3.944-16.347-7.588-26.257-10.444L300.227,175.683L300.227,175.683z"/>
</g>
<path d="M506.01,136.246h-12.949c-2.948-22.684-22.378-40.266-45.85-40.266c-23.475,0-42.905,17.582-45.854,40.266h-12.944  c-3.309,0-5.99,2.682-5.99,5.99v31.884c0,3.308,2.681,5.99,5.99,5.99h12.543v15.269h-24.255v-30.55c0-3.308-2.681-5.99-5.99-5.99  c-3.309,0-5.99,2.682-5.99,5.99v20.962c-6.087-5.821-14.787-12.956-26.257-19.623v-19.308c0-3.308-2.681-5.99-5.99-5.99  c-3.309,0-5.99,2.682-5.99,5.99v13.059c-7.773-3.616-16.512-6.872-26.257-9.412v-15.628c0-3.308-2.681-5.99-5.99-5.99  c-3.309,0-5.99,2.682-5.99,5.99v12.988c-8.14-1.482-16.889-2.446-26.257-2.74v-29.921c0-3.308-2.681-5.99-5.99-5.99  c-3.308,0-5.99,2.682-5.99,5.99v29.923c-9.367,0.292-18.116,1.258-26.257,2.74v-12.988c0-3.308-2.682-5.99-5.99-5.99  s-5.99,2.682-5.99,5.99v15.628c-9.743,2.54-18.484,5.796-26.257,9.412v-13.059c0-3.308-2.682-5.99-5.99-5.99s-5.99,2.682-5.99,5.99  v19.308c-11.47,6.666-20.17,13.801-26.257,19.623v-20.961c0-3.308-2.682-5.99-5.99-5.99s-5.99,2.682-5.99,5.99v30.55h-24.256v-15.27  h12.543c3.308,0,5.99-2.682,5.99-5.99v-31.884c0-3.308-2.682-5.99-5.99-5.99h-12.952c-2.947-22.684-22.373-40.266-45.846-40.266  c-23.475,0-42.904,17.582-45.851,40.266H5.99c-3.308,0-5.99,2.682-5.99,5.99v31.884c0,3.308,2.682,5.99,5.99,5.99h12.543v229.922  c0,3.308,2.682,5.99,5.99,5.99h80.532c3.308,0,5.99-2.682,5.99-5.99v-11.594h289.91v11.594c0,3.308,2.681,5.99,5.99,5.99h80.532  c3.309,0,5.99-2.682,5.99-5.99V180.109h12.543c3.309,0,5.99-2.682,5.99-5.99v-31.884C512,138.928,509.319,136.246,506.01,136.246z   M64.789,107.959c16.856,0,30.898,12.234,33.741,28.286H31.051C33.893,120.194,47.933,107.959,64.789,107.959z M99.064,233.177  H81.392c-3.308,0-5.99,2.682-5.99,5.99s2.682,5.99,5.99,5.99h17.673v57.272H81.392c-3.308,0-5.99,2.682-5.99,5.99  s2.682,5.99,5.99,5.99h17.673v57.272H81.392c-3.308,0-5.99,2.682-5.99,5.99s2.682,5.99,5.99,5.99h17.673v20.382H30.513v-55.008  h17.673c3.308,0,5.99-2.682,5.99-5.99s-2.682-5.99-5.99-5.99H30.513v-57.272h17.673c3.308,0,5.99-2.682,5.99-5.99  c0-3.308-2.682-5.99-5.99-5.99H30.513v-57.272h17.673c3.308,0,5.99-2.682,5.99-5.99s-2.682-5.99-5.99-5.99H30.513v-18.442h68.552  v53.068H99.064z M11.98,168.129v-19.904h105.617v19.904H11.98z M135.3,386.457h-24.256v-14.726h24.255v14.726H135.3z M135.3,359.751  h-24.256V232.535h24.255v127.216H135.3z M135.3,220.555h-24.256v-13.197h24.255v13.197H135.3z M173.537,386.457H147.28v-14.726  h26.257V386.457z M173.537,359.751H147.28V228.585c2.881-3.569,11.483-13.333,26.257-22.993V359.751z M173.537,191.343  c-11.47,6.666-20.17,13.801-26.257,19.623v-7.558c2.881-3.569,11.483-13.333,26.257-22.993V191.343z M211.774,386.457h-26.257  v-14.726h26.257V386.457z M211.774,359.751h-26.257V198.604c7.599-3.934,16.34-7.564,26.257-10.408V359.751z M211.774,175.683  c-9.743,2.54-18.484,5.796-26.257,9.412v-11.667c7.599-3.934,16.34-7.564,26.257-10.408V175.683z M223.754,160.11  c8.083-1.614,16.833-2.676,26.257-2.997v13.191c-9.367,0.292-18.116,1.258-26.257,2.74V160.11z M223.754,185.287  c8.083-1.614,16.833-2.676,26.257-2.997v75.383h-26.257V185.287z M250.011,386.457h-26.257v-14.726h26.257V386.457z   M250.011,359.751h-26.257v-61.685h26.257V359.751z M288.247,386.457h-26.257v-14.726h26.257L288.247,386.457L288.247,386.457z   M288.247,359.751h-26.257v-61.685h26.257L288.247,359.751L288.247,359.751z M288.247,286.086h-64.493v-16.433h64.493V286.086z   M288.247,257.673h-26.257V182.29c9.419,0.323,18.17,1.396,26.257,3.02L288.247,257.673L288.247,257.673z M288.247,173.042  c-8.14-1.482-16.889-2.446-26.257-2.74v-13.19c9.419,0.323,18.17,1.396,26.257,3.021L288.247,173.042L288.247,173.042z   M326.484,386.457h-26.257v-14.726h26.257V386.457z M326.484,359.751h-26.257V188.237c9.911,2.856,18.652,6.499,26.257,10.444  V359.751z M326.484,185.094c-7.773-3.616-16.512-6.872-26.257-9.412v-12.625c9.911,2.856,18.652,6.499,26.257,10.444V185.094z   M364.721,386.457h-26.257v-14.726h26.257V386.457z M364.721,359.751h-26.257V205.675c14.737,9.639,23.36,19.365,26.257,22.924  V359.751z M364.721,210.966c-6.087-5.821-14.787-12.956-26.257-19.623v-10.846c14.735,9.637,23.359,19.363,26.257,22.924V210.966z   M400.956,386.457h-24.255v-14.726h24.255V386.457z M400.956,359.751h-24.255V232.535h24.255V359.751z M400.956,220.555h-24.255  v-13.197h24.255V220.555z M447.211,107.959c16.855,0,30.895,12.234,33.736,28.286H413.47  C416.313,120.194,430.356,107.959,447.211,107.959z M481.487,198.551h-17.673c-3.309,0-5.99,2.682-5.99,5.99s2.681,5.99,5.99,5.99  h17.673v57.272h-17.673c-3.309,0-5.99,2.682-5.99,5.99c0,3.308,2.681,5.99,5.99,5.99h17.673v57.272h-17.673  c-3.309,0-5.99,2.682-5.99,5.99s2.681,5.99,5.99,5.99h17.673v55.008h-68.552v-20.382h17.674c3.309,0,5.99-2.682,5.99-5.99  s-2.681-5.99-5.99-5.99h-17.674v-57.272h17.674c3.309,0,5.99-2.682,5.99-5.99c0-3.308-2.681-5.99-5.99-5.99h-17.674v-57.272h17.674  c3.309,0,5.99-2.682,5.99-5.99s-2.681-5.99-5.99-5.99h-17.674v-53.068h68.552L481.487,198.551L481.487,198.551z M500.02,168.129  H394.403v-19.904H500.02V168.129z"/>
<g>
</g>
<g>
</g>
<g>
</g>
<g>
</g>
<g>
</g>
<g>
</g>
<g>
</g>
<g>
</g>
<g>
</g>
<g>
</g>
<g>
</g>
<g>
</g>
<g>
</g>
<g>
</g>
<g>
</g>
</svg>
